HIERARCHY
ROOT Hips
{
   OFFSET 0.00000 0.00000 0.00000
   CHANNELS 6 Xposition Yposition Zposition Zrotation Xrotation Yrotation
   JOINT Spine
   {
      OFFSET 0.000000 11.890501 0.000000
      CHANNELS 3 Zrotation Xrotation Yrotation
      JOINT Spine1
      {
         OFFSET -0.000000 25.657401 0.127660
         CHANNELS 3 Zrotation Xrotation Yrotation
         JOINT HEad
         {
            OFFSET 0.000000 8.734161 0.011340
            CHANNELS 3 Zrotation Xrotation Yrotation
            End Site
            {
               OFFSET -0.290000 12.774200 2.513950
            }
         }
         JOINT LeftShoulder1
         {
            OFFSET 8.990000 -0.362250 -0.220000
            CHANNELS 3 Zrotation Xrotation Yrotation
            JOINT LeftArm
            {
               OFFSET 10.282700 -0.003380 0.322120
               CHANNELS 3 Zrotation Xrotation Yrotation
               JOINT LeftForeArm
               {
                  OFFSET 32.766900 0.099140 -1.424340
                  CHANNELS 3 Zrotation Xrotation Yrotation
                  JOINT LeftHand
                  {
                     OFFSET 27.564301 0.085360 1.022160
                     CHANNELS 3 Zrotation Xrotation Yrotation
                     End Site
                     {
                        OFFSET 16.744301 -0.600000 1.502910
                     }
                  }
               }
            }
         }
         JOINT RightShoulder
         {
            OFFSET -8.990000 -0.362250 -0.220000
            CHANNELS 3 Zrotation Xrotation Yrotation
            JOINT RightArm
            {
               OFFSET -10.282700 -0.003380 0.322120
               CHANNELS 3 Zrotation Xrotation Yrotation
               JOINT RightForeArm
               {
                  OFFSET -32.897098 0.099140 -1.424340
                  CHANNELS 3 Zrotation Xrotation Yrotation
                  JOINT RightHand
                  {
                     OFFSET -27.492101 0.085360 1.022160
                     CHANNELS 3 Zrotation Xrotation Yrotation
                     End Site
                     {
                        OFFSET -16.631201 -0.600000 1.502910
                     }
                  }
               }
            }
         }
      }
   }
   JOINT LeftUpLeg
   {
      OFFSET 8.945800 -8.667070 0.101650
      CHANNELS 3 Zrotation Xrotation Yrotation
      JOINT LeftLeg
      {
         OFFSET 0.000000 -44.422697 1.372700
         CHANNELS 3 Zrotation Xrotation Yrotation
         JOINT LeftFoot
         {
            OFFSET -0.253550 -42.092399 -1.460590
            CHANNELS 3 Zrotation Xrotation Yrotation
            JOINT LeftToes
            {
               OFFSET -0.040000 -4.415090 8.499099
               CHANNELS 3 Zrotation Xrotation Yrotation
               End Site
               {
                  OFFSET 0.080000 -0.047450 9.779790
               }
            }
         }
      }
   }
   JOINT RightUpLeg
   {
      OFFSET -8.945800 -8.667070 0.101650
      CHANNELS 3 Zrotation Xrotation Yrotation
      JOINT RightLeg
      {
         OFFSET 0.000000 -44.422697 1.372700
         CHANNELS 3 Zrotation Xrotation Yrotation
         JOINT RightFoot
         {
            OFFSET 0.253550 -42.092399 -1.460590
            CHANNELS 3 Zrotation Xrotation Yrotation
            JOINT RightToes
            {
               OFFSET 0.040000 -4.415090 8.499099
               CHANNELS 3 Zrotation Xrotation Yrotation
               End Site
               {
                  OFFSET -0.080000 -0.137450 9.779790
               }
            }
         }
      }
   }
}
MOTION
Frames: 6
Frame Time: 0.016670
60.685596 85.893401 31.448452 27.931688 47.794512 89.348034 -26.409635 19.975539 23.069203 -11.263951 49.210990 12.671864 -25.846184 -2.527178 2.436427 -4.605177 -8.574190 -42.595652 32.246938 -53.928083 35.574736 -39.539948 -27.927040 -58.837176 -81.716493 -55.202788 -84.872982 -53.556131 48.980277 87.933863 143.279870 85.239463 147.742647 3.280317 183.916053 77.588695 5.093101 -15.703665 43.813410 29.322518 5.599641 36.143804 -29.087358 39.826901 129.926946 -14.477610 38.103023 -6.659237 35.814425 -17.371133 -63.985800 -21.533517 12.861582 9.592483 2.545948 26.617319 -18.796959 27.404193 36.384506 14.318479 -110.937346 -18.016956 -36.281900
59.864067 88.185691 30.765283 19.755755 44.430794 92.507344 -29.060307 17.770325 24.403957 -10.350411 49.982559 9.930266 -24.188234 -4.009395 1.179784 1.734902 -1.468994 -41.190808 45.103311 -60.765085 50.861130 -29.231782 -27.075807 -56.889670 -78.771404 -55.388115 -81.381041 -50.641929 48.317547 85.783535 138.333174 82.306443 151.632672 4.283244 181.559146 76.208348 4.891182 -16.753190 45.779900 29.523803 3.510223 42.061049 -28.600261 37.361176 119.805124 -13.506026 37.049866 -1.285437 27.675607 -24.110790 -57.045163 -18.818660 6.178512 6.962768 1.386079 25.184583 -17.981217 29.488546 38.596948 13.173366 -113.389746 -18.764428 -34.786888
59.099454 90.832728 30.004718 16.540854 43.712292 94.735714 -31.141418 16.855380 25.475933 -7.665906 49.399319 8.072650 -23.319579 -4.905891 0.368129 0.201152 12.672490 -37.910326 57.557089 -70.012403 51.208001 -18.855381 -27.752102 -53.945401 -80.462818 -53.692807 -88.073356 -47.960752 48.083241 83.605361 133.385508 79.035117 156.614120 5.265561 177.936755 74.308210 3.981332 -17.607466 47.011738 25.379936 0.842999 61.581108 -11.208966 43.255417 79.716900 -7.425334 30.732986 4.668925 29.357820 -20.819410 -47.141604 -17.673335 3.501379 4.704910 -1.088892 23.573800 -17.418543 30.822479 40.766022 10.880924 -115.154449 -18.831598 -32.891995
58.362936 93.448075 29.109478 15.467800 43.284135 99.051376 -33.232794 17.055126 27.417996 -5.796959 48.443475 6.534170 -22.768280 -5.001770 -0.076108 1.492719 26.137339 -33.865622 65.596809 -75.671126 49.036554 -8.588199 -27.042423 -50.662348 -82.001475 -51.201232 -92.392959 -47.683398 47.420931 83.597902 126.779799 76.474882 163.965248 6.815701 173.301065 72.835935 2.596480 -18.562957 47.041067 20.197322 -6.586077 90.513592 30.540849 36.235345 4.790433 -1.625405 29.359199 10.015888 28.833135 -18.003258 -39.025925 -17.532114 4.598903 2.457012 -1.584313 21.352681 -16.503004 33.401018 42.877735 9.218608 -116.089652 -17.338866 -30.570311
57.686028 96.022109 28.209848 12.152071 42.404314 100.517954 -35.266855 14.292650 30.694201 -5.533295 47.780459 5.302823 -22.124750 -5.576673 -0.174257 2.344910 36.298702 -29.495509 66.589413 -80.750069 42.797077 1.415977 -25.719894 -48.439958 -81.870848 -48.977538 -98.024539 -47.473735 47.749767 84.600608 121.204015 72.610682 170.339262 7.403604 168.320354 70.311204 0.661222 -19.542421 45.200672 17.518361 -7.909833 101.133156 31.890894 32.890926 -4.741973 2.581976 28.121779 16.197800 27.451046 -17.160043 -31.460801 -18.405526 2.006645 0.000553 -1.825030 20.368095 -15.868126 35.861126 44.661531 7.174043 -116.259573 -15.577824 -28.495807
56.982559 98.309763 27.101006 9.124477 40.326318 102.485083 -36.795114 9.310221 34.373593 -4.382704 45.152335 5.414104 -19.659101 -7.857070 -0.439197 3.039835 45.762489 -28.096333 66.846139 -82.188199 37.145663 9.444283 -22.414984 -47.688094 -80.136356 -46.508196 -106.672084 -48.669910 46.676041 87.472819 116.172639 67.896301 175.804452 4.063512 163.914431 62.929579 -2.199951 -20.519087 38.577137 15.243094 -10.344430 103.206180 31.781861 31.568557 -6.520900 3.074641 27.954866 19.394860 27.688216 -15.936580 -25.480811 -17.876444 -0.838416 -1.722131 -1.445758 19.227566 -14.501730 37.144693 47.280403 4.503574 -116.810865 -13.836256 -25.202831
